<svg xmlns="http://www.w3.org/2000/svg" viewBox="0 0 1000 1000">
  <path fill="#00AEEF" d="M500 10c-13.9 0-27.8 1.4-41.5 4.2-13.7 2.8-27.2 7-40.3 12.5-13.1 5.5-25.8 12.3-37.9 20.3-12.1 8-23.6 17.2-34.4 27.5-10.8 10.3-20.9 21.7-30.2 34.1-9.3 12.4-17.8 25.7-25.3 39.8-7.5 14.1-14 29-19.5 44.5-5.5 15.5-9.9 31.6-13.2 48.1-3.3 16.5-5.5 33.4-6.5 50.5-1 17.1-0.9 34.4 0.3 51.7 1.2 17.3 3.6 34.6 7.1 51.7 3.5 17.1 8.2 34 14 50.5 5.8 16.5 12.7 32.6 20.7 48.1 8 15.5 17.1 30.4 27.2 44.5 10.1 14.1 21.2 27.4 33.2 39.8 12 12.4 24.9 23.8 38.6 34.1 13.7 10.3 28.2 19.5 43.3 27.5 15.1 8 30.9 14.8 47.1 20.3 16.2 5.5 32.9 9.7 49.8 12.5 16.9 2.8 34.1 4.2 51.3 4.2 17.2 0 34.4-1.4 51.3-4.2 16.9-2.8 33.6-7 49.8-12.5 16.2-5.5 32-12.3 47.1-20.3 15.1-8 29.6-17.2 43.3-27.5 13.7-10.3 26.6-21.7 38.6-34.1 12-12.4 23.1-25.7 33.2-39.8 10.1-14.1 19.2-29 27.2-44.5 8-15.5 14.9-31.6 20.7-48.1 5.8-16.5 10.5-33.4 14-50.5 3.5-17.1 5.9-34.4 7.1-51.7 1.2-17.3 1.3-34.6 0.3-51.7-1-17.1-3.2-34-6.5-50.5-3.3-16.5-7.7-32.6-13.2-48.1-5.5-15.5-12-30.4-19.5-44.5-7.5-14.1-16-27.4-25.3-39.8-9.3-12.4-19.4-23.8-30.2-34.1-10.8-10.3-22.3-19.5-34.4-27.5-12.1-8-24.8-14.8-37.9-20.3-13.1-5.5-26.6-9.7-40.3-12.5C527.8 11.4 513.9 10 500 10z"/>
  <path fill="#FFFFFF" d="M500 150c-11.1 0-22.2 1.1-33.2 3.4-11 2.3-21.8 5.6-32.2 10-10.4 4.4-20.6 9.8-30.3 16.2-9.7 6.4-18.9 13.8-27.5 22-8.6 8.2-16.7 17.4-24.2 27.3-7.5 9.9-14.2 20.6-20.2 31.8-6 11.2-11.2 23.2-15.6 35.6-4.4 12.4-7.9 25.3-10.6 38.5-2.7 13.2-4.4 26.7-5.2 40.4-0.8 13.7-0.7 27.5 0.2 41.4 0.9 13.9 2.9 27.7 5.7 41.4 2.8 13.7 6.6 27.2 11.2 40.4 4.6 13.2 10.2 26.1 16.6 38.5 6.4 12.4 13.7 24.3 21.8 35.6 8.1 11.3 17 22 26.6 31.8 9.6 9.9 19.9 19 30.9 27.3 11 8.3 22.6 15.6 34.6 22 12 6.4 24.7 11.8 37.7 16.2 13 4.4 26.3 7.8 39.8 10 13.5 2.2 27.3 3.4 41 3.4 13.7 0 27.5-1.1 41-3.4 13.5-2.3 26.8-5.6 39.8-10 13-4.4 25.7-9.8 37.7-16.2 12-6.4 23.6-13.8 34.6-22 11-8.3 21.3-17.4 30.9-27.3 9.6-9.9 18.5-20.6 26.6-31.8 8.1-11.3 15.4-23.2 21.8-35.6 6.4-12.4 11.9-25.3 16.6-38.5 4.6-13.2 8.4-26.7 11.2-40.4 2.8-13.7 4.7-27.5 5.7-41.4 1-13.9 1-27.7 0.2-41.4-0.8-13.7-2.6-27.2-5.2-40.4-2.7-13.2-6.2-26.1-10.6-38.5-4.4-12.4-9.6-24.3-15.6-35.6-6-11.3-12.8-22-20.2-31.8-7.5-9.9-15.5-19-24.2-27.3-8.6-8.3-17.8-15.6-27.5-22-9.7-6.4-19.9-11.8-30.3-16.2-10.4-4.4-21.2-7.8-32.2-10C522.2 151.1 511.1 150 500 150z"/>
  <path fill="#00AEEF" d="M500 290c-8.3 0-16.7 0.8-24.9 2.5-8.2 1.7-16.3 4.2-24.2 7.5-7.8 3.3-15.5 7.4-22.7 12.2-7.2 4.8-14.2 10.3-20.6 16.5-6.5 6.2-12.5 13-18 20.5-5.6 7.5-10.7 15.4-15.2 23.9-4.5 8.5-8.4 17.4-11.7 26.7-3.3 9.3-5.9 19-7.9 28.9-2 9.9-3.3 20-3.9 30.3-0.6 10.3-0.5 20.6 0.2 31 0.7 10.4 2.2 20.8 4.3 31 2.1 10.2 4.9 20.4 8.4 30.3 3.5 9.9 7.6 19.6 12.4 28.9 4.8 9.3 10.3 18.2 16.3 26.7 6.1 8.5 12.7 16.5 19.9 23.9 7.2 7.4 14.9 14.3 23.2 20.5 8.2 6.2 16.9 11.7 26 16.5 9 4.8 18.5 8.9 28.3 12.2 9.7 3.3 19.7 5.8 29.9 7.5 10.1 1.7 20.4 2.5 30.8 2.5 10.3 0 20.6-0.8 30.8-2.5 10.1-1.7 20.1-4.2 29.9-7.5 9.7-3.3 19.2-7.4 28.3-12.2 9-4.8 17.7-10.3 26-16.5 8.2-6.2 16-13 23.2-20.5 7.2-7.4 13.9-15.4 19.9-23.9 6.1-8.5 11.5-17.4 16.3-26.7 4.8-9.3 8.9-19 12.4-28.9 3.5-9.9 6.3-20 8.4-30.3 2.1-10.2 3.5-20.6 4.3-31 0.7-10.4 0.8-20.7 0.2-31-0.6-10.3-1.9-20.4-3.9-30.3-2-9.9-4.6-19.6-7.9-28.9-3.3-9.3-7.2-18.2-11.7-26.7-4.5-8.5-9.6-16.5-15.2-23.9-5.6-7.5-11.6-14.3-18-20.5-6.5-6.2-13.4-11.7-20.6-16.5-7.2-4.8-14.9-8.9-22.7-12.2-7.8-3.3-15.9-5.8-24.2-7.5C516.7 290.8 508.3 290 500 290z"/>
</svg>